<?xml version="1.0" encoding="UTF-8" standalone="no"?>
<svg width="300" height="600" viewBox="0 0 300 600" fill="none" xmlns="http://www.w3.org/2000/svg">
  <rect x="50" y="50" width="200" height="500" rx="20" fill="white" stroke="#333333" stroke-width="4"/>
  <rect x="70" y="80" width="160" height="320" fill="#F5F5F5"/>
  <rect x="90" y="100" width="120" height="80" rx="5" fill="#FFE082"/>
  <rect x="90" y="190" width="120" height="20" rx="5" fill="#E0E0E0"/>
  <rect x="90" y="220" width="120" height="20" rx="5" fill="#E0E0E0"/>
  <rect x="90" y="250" width="120" height="20" rx="5" fill="#E0E0E0"/>
  <rect x="90" y="280" width="120" height="20" rx="5" fill="#E0E0E0"/>
  <rect x="90" y="310" width="120" height="20" rx="5" fill="#E0E0E0"/>
  <rect x="90" y="340" width="120" height="20" rx="5" fill="#E0E0E0"/>
  <rect x="90" y="370" width="120" height="20" rx="5" fill="#E0E0E0"/>
  <circle cx="150" cy="450" r="30" fill="#FF9800"/>
  <path d="M135 450L145 460L165 440" stroke="white" stroke-width="4" stroke-linecap="round" stroke-linejoin="round"/>
  <circle cx="150" cy="530" r="15" stroke="#333333" stroke-width="4"/>
</svg>
