<?xml version="1.0" encoding="UTF-8" standalone="no"?>
<svg width="24" height="24" viewBox="0 0 24 24" fill="none" xmlns="http://www.w3.org/2000/svg">
  <path d="M17.05 12.536C17.016 9.571 19.505 8.143 19.643 8.057C18.303 6.057 16.247 5.786 15.519 5.75C13.778 5.571 12.086 6.821 11.2 6.821C10.314 6.821 8.933 5.786 7.467 5.821C5.6 5.857 3.867 6.929 2.933 8.571C1.029 11.893 2.467 16.786 4.3 19.5C5.219 20.821 6.3 22.321 7.733 22.25C9.129 22.179 9.643 21.357 11.333 21.357C13.024 21.357 13.5 22.25 14.967 22.214C16.467 22.179 17.4 20.857 18.3 19.536C19.367 18.036 19.8 16.571 19.833 16.5C19.767 16.464 17.086 15.464 17.05 12.536Z" fill="black"/>
  <path d="M14.733 4.036C15.467 3.143 15.967 1.893 15.833 0.643C14.767 0.679 13.467 1.357 12.7 2.25C12.014 3.036 11.414 4.321 11.567 5.536C12.767 5.607 14 4.929 14.733 4.036Z" fill="black"/>
</svg>
