<?xml version="1.0" encoding="UTF-8" standalone="no"?>
<svg width="24" height="24" viewBox="0 0 24 24" fill="none" xmlns="http://www.w3.org/2000/svg">
  <path d="M22.56 12.25C22.56 11.47 22.49 10.72 22.36 10H12V14.255H17.92C17.66 15.63 16.89 16.795 15.72 17.575V20.335H19.28C21.36 18.42 22.56 15.6 22.56 12.25Z" fill="#4285F4"/>
  <path d="M12 23C14.97 23 17.46 22.015 19.28 20.335L15.72 17.575C14.73 18.235 13.48 18.625 12 18.625C9.235 18.625 6.9 16.73 6.025 14.185H2.36V17.03C4.16 20.585 7.8 23 12 23Z" fill="#34A853"/>
  <path d="M6.025 14.185C5.805 13.525 5.68 12.82 5.68 12C5.68 11.18 5.805 10.475 6.025 9.815V6.97H2.36C1.62 8.49 1.2 10.195 1.2 12C1.2 13.805 1.62 15.51 2.36 17.03L6.025 14.185Z" fill="#FBBC05"/>
  <path d="M12 5.375C13.615 5.375 15.065 5.93 16.205 7.02L19.36 3.865C17.455 2.09 14.965 1 12 1C7.8 1 4.16 3.415 2.36 6.97L6.025 9.815C6.9 7.27 9.235 5.375 12 5.375Z" fill="#EA4335"/>
</svg>
