<?xml version="1.0" encoding="UTF-8" standalone="no"?>
<svg width="400" height="300" viewBox="0 0 400 300" fill="none" xmlns="http://www.w3.org/2000/svg">
  <rect width="400" height="300" fill="#FFF8E1"/>
  <path d="M150 100C150 100 180 80 200 80C220 80 250 100 250 100V250H150V100Z" fill="#FFE082"/>
  <path d="M150 100C150 100 180 80 200 80C220 80 250 100 250 100V250H150V100Z" stroke="#FF9800" stroke-width="4"/>
  <circle cx="200" cy="60" r="30" fill="#FF9800"/>
  <path d="M180 60C180 60 190 70 200 70C210 70 220 60 220 60" stroke="white" stroke-width="4" stroke-linecap="round"/>
  <path d="M180 50H220" stroke="white" stroke-width="4" stroke-linecap="round"/>
  <path d="M170 150H230" stroke="#FF9800" stroke-width="4" stroke-linecap="round"/>
  <path d="M170 180H230" stroke="#FF9800" stroke-width="4" stroke-linecap="round"/>
  <path d="M170 210H230" stroke="#FF9800" stroke-width="4" stroke-linecap="round"/>
</svg>
